<?xml version="1.0" standalone="no"?>
<!DOCTYPE svg PUBLIC "-//W3C//DTD SVG 20010904//EN"
 "http://www.w3.org/TR/2001/REC-SVG-20010904/DTD/svg10.dtd">
<svg version="1.0" xmlns="http://www.w3.org/2000/svg"
 width="562.000000pt" height="562.000000pt" viewBox="0 0 562.000000 562.000000"
 preserveAspectRatio="xMidYMid meet">
<metadata>
Created by potrace 1.11, written by Peter Selinger 2001-2013
</metadata>
<g transform="translate(0.000000,562.000000) scale(0.100000,-0.100000)"
fill="#000000" stroke="none">
<path d="M2378 5145 c-1 -1 -38 -5 -81 -9 -185 -16 -306 -56 -416 -138 -84
-63 -153 -88 -260 -93 -172 -8 -193 -16 -336 -139 -113 -97 -218 -172 -303
-215 -59 -30 -130 -93 -194 -171 -30 -38 -138 -213 -138 -225 0 -3 -20 -35
-44 -72 -69 -108 -89 -151 -103 -224 -3 -15 -33 -54 -70 -90 -158 -154 -225
-289 -240 -484 -2 -38 -8 -89 -12 -112 -8 -43 -6 -160 3 -203 6 -24 8 -62 21
-300 4 -58 8 -116 9 -130 6 -38 15 -92 21 -120 3 -14 8 -36 11 -49 3 -13 12
-54 20 -90 8 -36 17 -77 19 -91 3 -14 15 -56 26 -95 18 -62 32 -97 87 -225 31
-74 161 -329 206 -403 25 -43 46 -80 46 -82 0 -2 32 -56 70 -121 73 -121 159
-235 205 -268 14 -11 35 -27 45 -35 10 -9 28 -23 39 -31 12 -8 21 -20 21 -27
0 -14 118 -133 132 -133 6 0 22 -8 36 -19 35 -23 89 -34 95 -18 2 6 1 27 -2
47 -3 19 -6 63 -6 97 0 35 -3 63 -6 63 -4 0 -12 21 -19 48 -7 26 -16 52 -20
57 -4 6 -17 39 -30 75 -60 167 -125 293 -245 475 -52 78 -99 155 -105 171 -6
16 -20 47 -30 69 -11 22 -21 49 -22 60 -2 11 -7 25 -10 31 -9 13 -15 55 -34
219 -10 84 -11 264 -3 320 6 40 105 301 121 319 4 6 9 -9 9 -32 1 -23 2 -45 3
-49 1 -5 6 -46 10 -93 4 -47 9 -96 11 -110 12 -76 17 -123 20 -196 4 -96 24
-144 59 -144 26 0 120 96 176 180 32 48 140 180 182 222 9 9 19 14 22 11 3 -4
6 -1 6 5 0 12 55 68 133 135 27 23 61 53 77 67 191 173 470 398 565 457 103
64 280 156 425 221 25 11 70 31 100 45 30 13 71 28 90 33 49 11 49 11 55 14 3
1 8 3 13 4 4 2 41 13 82 26 41 13 77 25 80 25 3 1 12 4 20 8 48 18 127 40 158
42 20 2 37 4 37 5 0 3 27 7 83 14 28 3 69 9 90 12 20 4 48 8 62 9 14 2 25 4
25 5 0 1 18 3 40 4 22 2 90 7 150 12 142 11 439 11 580 0 146 -11 165 -13 215
-21 24 -4 57 -9 74 -11 73 -8 146 -29 180 -51 18 -12 18 -13 -10 -23 -16 -7
-40 -13 -54 -15 -14 -2 -25 -4 -25 -5 0 -1 -8 -3 -17 -5 -26 -5 -86 -24 -163
-52 -120 -44 -201 -96 -520 -333 -158 -118 -300 -264 -458 -473 -76 -100 -108
-158 -133 -242 -20 -72 -23 -229 -5 -295 7 -25 15 -53 17 -63 9 -49 57 -129
115 -192 36 -38 80 -90 99 -115 19 -25 37 -47 40 -50 21 -19 111 -143 107
-147 -3 -3 -18 2 -34 11 -72 39 -116 57 -151 60 -20 2 -59 9 -87 16 -31 7 -76
9 -120 5 -38 -4 -105 -9 -147 -11 -88 -4 -189 -29 -302 -73 -101 -41 -114 -51
-186 -143 -112 -143 -140 -247 -87 -327 31 -47 110 -111 185 -151 28 -15 48
-31 44 -35 -4 -5 -2 -5 5 -1 22 12 122 -49 183 -112 76 -79 103 -131 62 -118
-10 4 -39 8 -63 11 -24 3 -71 10 -104 15 -139 25 -258 38 -376 39 -70 1 -140
5 -155 8 -16 4 -67 7 -114 7 -69 0 -94 -4 -133 -23 -88 -43 -136 -144 -123
-255 9 -68 21 -84 71 -91 22 -3 54 -7 70 -10 42 -6 112 -15 165 -20 25 -2 45
-5 45 -6 0 0 14 -3 30 -4 43 -4 134 -14 175 -20 147 -18 450 -25 515 -12 17 4
50 9 75 12 25 3 62 9 82 14 20 5 39 6 42 3 4 -3 6 0 6 7 0 7 4 10 8 7 5 -3 33
2 63 10 30 8 62 17 72 19 9 2 21 6 25 9 5 3 24 8 43 11 19 3 42 8 51 11 9 3
25 7 35 9 10 2 51 13 91 24 39 10 72 17 72 15 0 -3 8 0 18 5 11 6 31 12 45 15
15 3 80 21 144 42 164 52 229 88 427 238 69 53 128 96 132 96 4 0 14 8 23 18
9 9 41 36 72 59 84 64 109 90 321 328 15 16 63 68 107 115 44 47 92 108 107
135 15 28 32 53 37 56 5 3 8 9 7 13 -3 13 53 116 63 116 6 0 8 3 4 6 -3 3 9
34 26 68 17 33 32 63 32 66 1 3 9 22 18 43 9 20 15 39 14 40 -1 2 6 15 16 30
9 15 15 27 12 27 -2 0 0 12 6 28 6 15 13 36 14 47 2 11 10 47 19 80 17 67 24
102 32 160 3 22 14 86 25 143 22 115 30 202 19 202 -6 0 -16 27 -36 100 -9 32
-12 67 -19 228 -3 73 -7 152 -10 175 -8 82 -70 240 -176 445 -65 128 -76 143
-162 225 -217 209 -303 271 -502 370 -132 65 -302 128 -395 148 -30 6 -86 21
-125 34 -97 32 -206 61 -295 80 -41 9 -84 18 -95 21 -11 2 -33 7 -50 10 -61
11 -231 46 -265 54 -94 24 -463 27 -570 5 -14 -3 -47 -8 -75 -11 -27 -3 -102
-14 -165 -25 -63 -11 -140 -25 -170 -30 -85 -14 -149 -34 -222 -68 -36 -17
-77 -31 -91 -31 -44 0 -160 -40 -237 -82 -64 -35 -110 -64 -265 -168 -25 -17
-41 -28 -145 -105 -41 -30 -81 -55 -87 -55 -7 0 -13 -4 -13 -8 0 -5 -35 -34
-77 -64 -144 -103 -219 -193 -312 -374 -22 -44 -41 -85 -41 -91 0 -6 -3 -13
-7 -15 -5 -1 -21 -29 -36 -60 -29 -58 -96 -138 -115 -138 -6 0 0 27 15 63 13
34 26 67 27 72 1 6 7 19 13 30 6 11 29 76 52 145 23 69 48 139 56 155 7 17 21
50 31 75 29 74 93 191 142 260 139 195 357 358 502 375 91 11 141 24 235 64
50 21 114 44 143 50 49 10 108 36 250 110 29 15 58 28 65 28 7 0 66 15 132 33
66 18 130 34 143 36 13 3 52 11 86 19 171 39 214 42 581 42 327 0 455 -9 650
-42 124 -21 132 -23 200 -44 57 -18 96 -16 97 4 1 17 -224 123 -342 160 -63
21 -151 53 -195 72 -105 46 -128 56 -140 58 -5 2 -46 14 -90 29 -44 14 -128
37 -188 51 -104 24 -117 25 -456 24 -192 0 -351 -2 -353 -4z"/>
</g>
</svg>
